<svg width="24" height="24" viewBox="0 0 24 24" fill="none" xmlns="http://www.w3.org/2000/svg">
<g clip-path="url(#clip0_4977_15441)">
<path d="M19.4504 7.49999H4.55043C4.48126 7.49977 4.4128 7.5139 4.34938 7.54149C4.28595 7.56909 4.22894 7.60954 4.18195 7.66029C4.13496 7.71104 4.099 7.77099 4.07637 7.83635C4.05373 7.9017 4.0449 7.97105 4.05043 8.03999L5.33043 22.18C5.37549 22.6786 5.60593 23.1422 5.97623 23.4792C6.34654 23.8162 6.82976 24.002 7.33043 24H16.6704C17.1711 24.002 17.6543 23.8162 18.0246 23.4792C18.3949 23.1422 18.6254 22.6786 18.6704 22.18L20.0004 7.99999C20.006 7.93105 19.9971 7.86171 19.9745 7.79635C19.9519 7.73099 19.9159 7.67104 19.8689 7.62029C19.8219 7.56954 19.7649 7.52908 19.7015 7.50149C19.6381 7.4739 19.5696 7.45977 19.5004 7.45999L19.4504 7.49999ZM10.2504 20.5C10.2504 20.6989 10.1714 20.8897 10.0308 21.0303C9.89011 21.171 9.69934 21.25 9.50043 21.25C9.30152 21.25 9.11075 21.171 8.9701 21.0303C8.82945 20.8897 8.75043 20.6989 8.75043 20.5V11.5C8.75043 11.3011 8.82945 11.1103 8.9701 10.9697C9.11075 10.829 9.30152 10.75 9.50043 10.75C9.69934 10.75 9.89011 10.829 10.0308 10.9697C10.1714 11.1103 10.2504 11.3011 10.2504 11.5V20.5ZM15.2504 20.5C15.2504 20.6989 15.1714 20.8897 15.0308 21.0303C14.8901 21.171 14.6993 21.25 14.5004 21.25C14.3015 21.25 14.1108 21.171 13.9701 21.0303C13.8294 20.8897 13.7504 20.6989 13.7504 20.5V11.5C13.7504 11.3011 13.8294 11.1103 13.9701 10.9697C14.1108 10.829 14.3015 10.75 14.5004 10.75C14.6993 10.75 14.8901 10.829 15.0308 10.9697C15.1714 11.1103 15.2504 11.3011 15.2504 11.5V20.5Z" fill="#FF4040"/>
<path d="M22 4H17.25C17.1837 4 17.1201 3.97366 17.0732 3.92678C17.0263 3.87989 17 3.8163 17 3.75V2.5C17 1.83696 16.7366 1.20107 16.2678 0.732233C15.7989 0.263392 15.163 0 14.5 0L9.5 0C8.83696 0 8.20107 0.263392 7.73223 0.732233C7.26339 1.20107 7 1.83696 7 2.5V3.75C7 3.8163 6.97366 3.87989 6.92678 3.92678C6.87989 3.97366 6.8163 4 6.75 4H2C1.73478 4 1.48043 4.10536 1.29289 4.29289C1.10536 4.48043 1 4.73478 1 5C1 5.26522 1.10536 5.51957 1.29289 5.70711C1.48043 5.89464 1.73478 6 2 6H22C22.2652 6 22.5196 5.89464 22.7071 5.70711C22.8946 5.51957 23 5.26522 23 5C23 4.73478 22.8946 4.48043 22.7071 4.29289C22.5196 4.10536 22.2652 4 22 4ZM9 3.75V2.5C9 2.36739 9.05268 2.24021 9.14645 2.14645C9.24021 2.05268 9.36739 2 9.5 2H14.5C14.6326 2 14.7598 2.05268 14.8536 2.14645C14.9473 2.24021 15 2.36739 15 2.5V3.75C15 3.8163 14.9737 3.87989 14.9268 3.92678C14.8799 3.97366 14.8163 4 14.75 4H9.25C9.1837 4 9.12011 3.97366 9.07322 3.92678C9.02634 3.87989 9 3.8163 9 3.75Z" fill="#FF4040"/>
</g>
<defs>
<clipPath id="clip0_4977_15441">
<rect width="24" height="24" fill="white"/>
</clipPath>
</defs>
</svg>
