<svg width="100" height="100" viewBox="0 0 100 100" fill="none" xmlns="http://www.w3.org/2000/svg">
<path d="M32.2917 10.4165C32.2917 8.69063 30.8925 7.2915 29.1667 7.2915C27.4408 7.2915 26.0417 8.69063 26.0417 10.4165V16.9968C20.0444 17.477 16.1074 18.6555 13.2149 21.548C10.3224 24.4405 9.14378 28.3776 8.66357 34.3748H91.3362C90.8562 28.3776 89.6775 24.4405 86.785 21.548C83.8925 18.6555 79.9554 17.477 73.9583 16.9968V10.4165C73.9583 8.69063 72.5592 7.2915 70.8333 7.2915C69.1075 7.2915 67.7083 8.69063 67.7083 10.4165V16.7203C64.9362 16.6665 61.8292 16.6665 58.3333 16.6665H41.6667C38.1707 16.6665 35.0636 16.6665 32.2917 16.7203V10.4165Z" fill="#B1B1B1"/>
<path fill-rule="evenodd" clip-rule="evenodd" d="M8.33325 50C8.33325 46.5042 8.33325 43.3971 8.387 40.625H91.6128C91.6666 43.3971 91.6666 46.5042 91.6666 50V58.3333C91.6666 74.0467 91.6666 81.9038 86.7849 86.785C81.9037 91.6667 74.0466 91.6667 58.3333 91.6667H41.6666C25.9531 91.6667 18.0964 91.6667 13.2148 86.785C8.33325 81.9038 8.33325 74.0467 8.33325 58.3333V50ZM70.8333 58.3333C73.1345 58.3333 74.9999 56.4679 74.9999 54.1667C74.9999 51.8654 73.1345 50 70.8333 50C68.532 50 66.6666 51.8654 66.6666 54.1667C66.6666 56.4679 68.532 58.3333 70.8333 58.3333ZM70.8333 75C73.1345 75 74.9999 73.1346 74.9999 70.8333C74.9999 68.5321 73.1345 66.6667 70.8333 66.6667C68.532 66.6667 66.6666 68.5321 66.6666 70.8333C66.6666 73.1346 68.532 75 70.8333 75ZM54.1666 54.1667C54.1666 56.4679 52.3012 58.3333 49.9999 58.3333C47.6987 58.3333 45.8333 56.4679 45.8333 54.1667C45.8333 51.8654 47.6987 50 49.9999 50C52.3012 50 54.1666 51.8654 54.1666 54.1667ZM54.1666 70.8333C54.1666 73.1346 52.3012 75 49.9999 75C47.6987 75 45.8333 73.1346 45.8333 70.8333C45.8333 68.5321 47.6987 66.6667 49.9999 66.6667C52.3012 66.6667 54.1666 68.5321 54.1666 70.8333ZM29.1666 58.3333C31.4678 58.3333 33.3333 56.4679 33.3333 54.1667C33.3333 51.8654 31.4678 50 29.1666 50C26.8654 50 24.9999 51.8654 24.9999 54.1667C24.9999 56.4679 26.8654 58.3333 29.1666 58.3333ZM29.1666 75C31.4678 75 33.3333 73.1346 33.3333 70.8333C33.3333 68.5321 31.4678 66.6667 29.1666 66.6667C26.8654 66.6667 24.9999 68.5321 24.9999 70.8333C24.9999 73.1346 26.8654 75 29.1666 75Z" fill="#B1B1B1"/>
</svg>
