<svg width="24" height="24" viewBox="0 0 24 24" fill="none" xmlns="http://www.w3.org/2000/svg">
<g clip-path="url(#clip0_4936_8592)">
<path d="M19.0847 23.7598C18.06 23.7598 16.6204 23.3891 14.4647 22.1848C11.8433 20.7147 9.81578 19.3576 7.20853 16.7572C4.69483 14.2451 3.47158 12.6186 1.75953 9.50318C-0.174568 5.98568 0.155132 4.14183 0.523682 3.35383C0.962582 2.41198 1.61043 1.84863 2.44783 1.28948C2.92343 0.977883 3.42678 0.710733 3.95143 0.491483C4.00393 0.468933 4.05273 0.447383 4.09633 0.427983C4.35623 0.310883 4.74998 0.133983 5.24873 0.322983C5.58158 0.447933 5.87873 0.703583 6.34388 1.16298C7.29783 2.10378 8.60143 4.19903 9.08233 5.22808C9.40523 5.92158 9.61888 6.37943 9.61943 6.89288C9.61943 7.49403 9.31703 7.95758 8.95003 8.45793C8.88128 8.55188 8.81298 8.64163 8.74688 8.72883C8.34728 9.25383 8.25963 9.40558 8.31738 9.67643C8.43448 10.2209 9.30753 11.8416 10.7424 13.2733C12.1772 14.705 13.7512 15.5229 14.2977 15.6395C14.5802 15.6999 14.735 15.6085 15.2769 15.1948C15.3546 15.1355 15.4344 15.0741 15.5178 15.0127C16.0775 14.5963 16.5196 14.3018 17.1065 14.3018H17.1097C17.6205 14.3018 18.0578 14.5233 18.7823 14.8887C19.7273 15.3654 21.8856 16.6522 22.8322 17.6072C23.2927 18.0713 23.5494 18.3674 23.6749 18.6997C23.8639 19.2001 23.6859 19.5922 23.5699 19.8548C23.5505 19.8983 23.529 19.9461 23.5063 19.9991C23.2854 20.5229 23.0167 21.0251 22.7036 21.4996C22.1456 22.3344 21.5801 22.9807 20.6361 23.4201C20.1514 23.6494 19.6209 23.7655 19.0847 23.7598Z" fill="#333333"/>
</g>
<defs>
<clipPath id="clip0_4936_8592">
<rect width="24" height="24" fill="white"/>
</clipPath>
</defs>
</svg>
