<svg width="24" height="24" viewBox="0 0 24 24" fill="none" xmlns="http://www.w3.org/2000/svg">
<path d="M23.7406 9.84281C23.7267 9.77796 23.7062 9.71481 23.6794 9.65416L21.3654 4.25436C20.8319 3.00666 19.534 2.20001 18.0573 2.20001H5.94324C4.46774 2.20001 3.16864 3.00666 2.63574 4.25436L0.319243 9.65416C0.266593 9.77596 0.239693 9.90736 0.240243 10.04V20.8201C0.240243 21.0799 0.343493 21.3292 0.527293 21.513C0.711093 21.6968 0.960343 21.8 1.22024 21.8H3.18024C3.44014 21.8 3.68939 21.6968 3.87319 21.513C4.05699 21.3293 4.16019 21.0799 4.16019 20.8201V19.8401H19.8402V20.8201C19.8402 21.0799 19.9435 21.3292 20.1272 21.513C20.3111 21.6968 20.5603 21.8 20.8202 21.8H22.7803C23.0402 21.8 23.2894 21.6968 23.4732 21.513C23.657 21.3293 23.7602 21.0799 23.7602 20.8201V10.04C23.7604 9.97376 23.7538 9.90771 23.7406 9.84281ZM5.14024 15.9201C4.75259 15.9201 4.37364 15.8051 4.05139 15.5897C3.72909 15.3744 3.47779 15.0682 3.32944 14.7101C3.18109 14.352 3.14224 13.9579 3.21789 13.5776C3.29354 13.1975 3.48019 12.8482 3.75434 12.5742C4.02844 12.3 4.37769 12.1134 4.75789 12.0377C5.13809 11.9621 5.53219 12.0009 5.89034 12.1492C6.24844 12.2976 6.55459 12.5488 6.76994 12.8711C6.98529 13.1934 7.10024 13.5724 7.10024 13.96C7.10024 14.4799 6.89379 14.9784 6.52624 15.346C6.15859 15.7135 5.66009 15.9201 5.14024 15.9201ZM18.8602 15.9201C18.4726 15.9201 18.0937 15.8051 17.7714 15.5897C17.449 15.3744 17.1978 15.0682 17.0495 14.7101C16.9011 14.352 16.8623 13.9579 16.9379 13.5776C17.0135 13.1975 17.2002 12.8482 17.4743 12.5742C17.7484 12.3 18.0977 12.1134 18.4779 12.0377C18.8581 11.9621 19.2522 12.0009 19.6103 12.1492C19.9684 12.2976 20.2746 12.5488 20.4899 12.8711C20.7053 13.1934 20.8202 13.5724 20.8202 13.96C20.8202 14.4799 20.6138 14.9784 20.2462 15.346C19.8786 15.7135 19.3801 15.9201 18.8602 15.9201ZM2.70619 9.06001L4.43529 5.02676C4.65694 4.50851 5.26274 4.16001 5.94324 4.16001H18.0573C18.7371 4.16001 19.3435 4.50851 19.5652 5.02676L21.2943 9.06001H2.70619Z" fill="#333333"/>
</svg>
