<svg width="98" height="82" viewBox="0 0 98 82" fill="none" xmlns="http://www.w3.org/2000/svg">
<path d="M97.9184 31.845C97.8605 31.5748 97.7748 31.3117 97.6634 31.059L88.0215 8.55979C85.7986 3.36104 80.3909 0 74.2377 0H23.7625C17.6146 0 12.2017 3.36104 9.98129 8.55979L0.329201 31.059C0.109826 31.5665 -0.00225722 32.114 3.44447e-05 32.6667V77.5835C3.44447e-05 78.6663 0.430243 79.705 1.19608 80.4708C1.96191 81.2367 3.00045 81.6667 4.08337 81.6667H12.25C13.333 81.6667 14.3715 81.2365 15.1373 80.4708C15.9032 79.7052 16.3332 78.6663 16.3332 77.5835V73.5002H81.6667V77.5835C81.6667 78.6663 82.0971 79.705 82.8625 80.4708C83.6286 81.2365 84.6671 81.6667 85.75 81.6667H93.9169C94.9998 81.6667 96.0384 81.2365 96.8042 80.4708C97.57 79.7052 98 78.6663 98 77.5835V32.6667C98.0007 32.3906 97.9732 32.1154 97.9184 31.845ZM20.4167 57.1669C18.8015 57.1669 17.2225 56.6877 15.8798 55.7904C14.5369 54.8931 13.4898 53.6175 12.8717 52.1254C12.2536 50.6331 12.0917 48.991 12.4069 47.4067C12.7221 45.8227 13.4998 44.3675 14.6421 43.2256C15.7842 42.0831 17.2394 41.3056 18.8236 40.9904C20.4077 40.6752 22.0498 40.8371 23.5421 41.455C25.0342 42.0733 26.3098 43.1198 27.2071 44.4629C28.1044 45.8058 28.5834 47.385 28.5834 49C28.5834 51.1663 27.7232 53.2433 26.1917 54.7748C24.6598 56.3063 22.5827 57.1669 20.4167 57.1669ZM77.5834 57.1669C75.9682 57.1669 74.3894 56.6877 73.0465 55.7904C71.7032 54.8931 70.6565 53.6175 70.0386 52.1254C69.4205 50.6331 69.2586 48.991 69.5736 47.4067C69.8888 45.8227 70.6667 44.3675 71.8088 43.2256C72.9509 42.0831 74.4063 41.3056 75.9902 40.9904C77.5746 40.6752 79.2165 40.8371 80.7088 41.455C82.2009 42.0733 83.4765 43.1198 84.3738 44.4629C85.2711 45.8058 85.75 47.385 85.75 49C85.75 51.1663 84.8898 53.2433 83.3584 54.7748C81.8265 56.3063 79.7494 57.1669 77.5834 57.1669ZM10.2748 28.5833L17.4794 11.7781C18.403 9.61875 20.9271 8.16667 23.7625 8.16667H74.2377C77.0705 8.16667 79.5969 9.61875 80.5209 11.7781L87.7255 28.5833H10.2748Z" fill="#B1B1B1"/>
</svg>
