<svg width="100" height="100" viewBox="0 0 100 100" fill="none" xmlns="http://www.w3.org/2000/svg">
<g clip-path="url(#clip0_2232_6405)">
<path d="M50 0C40.111 0 30.444 2.93245 22.2215 8.42652C13.9991 13.9206 7.59043 21.7295 3.80605 30.8658C0.0216643 40.0021 -0.968503 50.0555 0.960758 59.7545C2.89002 69.4536 7.65206 78.3627 14.6447 85.3553C21.6373 92.348 30.5465 97.11 40.2455 99.0393C49.9446 100.969 59.9979 99.9784 69.1342 96.194C78.2705 92.4096 86.0794 86.001 91.5735 77.7785C97.0676 69.5561 100 59.8891 100 50C100 36.7392 94.7322 24.0215 85.3554 14.6447C75.9785 5.26784 63.2608 0 50 0ZM71.6667 71.75C71.2961 72.1573 70.8485 72.4872 70.3496 72.7205C69.8508 72.9537 69.3107 73.0858 68.7605 73.1091C68.2103 73.1323 67.661 73.0463 67.1442 72.8559C66.6275 72.6655 66.1536 72.3746 65.75 72L44.9167 53.0833C44.5227 52.6758 44.216 52.1921 44.0154 51.662C43.8148 51.1318 43.7245 50.5663 43.75 50V27.0833C43.75 25.9783 44.189 24.9185 44.9704 24.1371C45.7518 23.3557 46.8116 22.9167 47.9167 22.9167C49.0218 22.9167 50.0816 23.3557 50.863 24.1371C51.6444 24.9185 52.0834 25.9783 52.0834 27.0833V48.1667L71.375 65.875C72.191 66.6164 72.6799 67.6511 72.7346 68.7522C72.7893 69.8534 72.4053 70.9314 71.6667 71.75Z" fill="#B1B1B1"/>
</g>
<defs>
<clipPath id="clip0_2232_6405">
<rect width="100" height="100" fill="white"/>
</clipPath>
</defs>
</svg>
