<svg width="24" height="24" viewBox="0 0 24 24" fill="none" xmlns="http://www.w3.org/2000/svg">
<g clip-path="url(#clip0_4936_8618)">
<path fill-rule="evenodd" clip-rule="evenodd" d="M24 2.57143C24 1.15127 22.8487 0 21.4286 0H9.42857C8.00841 0 6.85714 1.15127 6.85714 2.57143V5.89479C7.54738 6.44746 8.00412 7.25234 8.11606 8.14282H14.1429C16.2731 8.14282 18 9.86971 18 12C18 14.1302 16.2731 15.8571 14.1429 15.8571H8.11606C8.00415 16.7476 7.5474 17.5526 6.85714 18.1053V21.4286C6.85714 22.8487 8.00841 24 9.42857 24H21.4286C22.8487 24 24 22.8487 24 21.4286V2.57143ZM5.20629 7.38362C5.6868 7.58263 6 8.05145 6 8.57146V10.2857H14.1429C15.0896 10.2857 15.8571 11.0533 15.8571 12C15.8571 12.9468 15.0896 13.7143 14.1429 13.7143H6V15.4286C6 15.9486 5.6868 16.4175 5.20629 16.6165C4.72594 16.8155 4.17291 16.7055 3.8052 16.3377L0.376629 12.9092C-0.125486 12.4071 -0.125486 11.593 0.376629 11.0909L3.8052 7.66233C4.17291 7.29461 4.72594 7.18462 5.20629 7.38362Z" fill="#FF4040"/>
</g>
<defs>
<clipPath id="clip0_4936_8618">
<rect width="24" height="24" fill="white" transform="matrix(-1 0 0 1 24 0)"/>
</clipPath>
</defs>
</svg>
