<svg width="24" height="24" viewBox="0 0 24 24" fill="none" xmlns="http://www.w3.org/2000/svg">
<g clip-path="url(#clip0_4936_8583)">
<path fill-rule="evenodd" clip-rule="evenodd" d="M20.6838 0.85086C17.2808 0.639405 14.1628 0.809765 12.7422 0.915405C12.0722 0.965225 11.4342 1.20634 10.9002 1.62725C9.38265 2.82306 5.45215 6.12405 1.48442 11.1361C0.621745 12.2258 0.49637 13.7436 1.39228 14.9106C2.07513 15.8 3.18033 17.1228 4.9524 19.013C7.0152 21.2133 8.4694 22.3865 9.41365 23.0123C10.4498 23.699 11.6637 23.4599 12.523 22.8097C17.7956 18.8204 21.2145 14.6393 22.4076 13.0748C22.8063 12.5519 23.0334 11.934 23.0819 11.2878C23.1873 9.88145 23.3617 6.74305 23.1487 3.31574C23.0662 1.98809 22.0114 0.933355 20.6838 0.85086ZM16.75 5.5C16.75 4.5335 17.5335 3.75 18.5 3.75C19.4665 3.75 20.25 4.5335 20.25 5.5C20.25 6.4665 19.4665 7.25 18.5 7.25C17.5335 7.25 16.75 6.4665 16.75 5.5Z" fill="#333333"/>
</g>
<defs>
<clipPath id="clip0_4936_8583">
<rect width="24" height="24" fill="white"/>
</clipPath>
</defs>
</svg>
