<svg width="24" height="24" viewBox="0 0 24 24" fill="none" xmlns="http://www.w3.org/2000/svg">
<path fill-rule="evenodd" clip-rule="evenodd" d="M13.7798 1.17745C15.0991 0.852817 16.5262 1.33506 17.2528 2.57659C17.4395 2.89549 17.644 3.26729 17.8606 3.69528C16.3413 3.59496 14.0879 3.5 10.9998 3.5C9.25815 3.5 7.78195 3.53021 6.5532 3.57454C8.8639 2.61046 11.3787 1.76831 13.7798 1.17745ZM4.02872 23.0444C5.51685 23.1474 7.8024 23.25 11 23.25C14.1975 23.25 16.4832 23.1474 17.9713 23.0444C19.6105 22.931 20.9035 21.686 21.0381 20.0334C21.0638 19.7177 21.0891 19.3663 21.1129 18.978C20.6486 18.9914 20.1124 19 19.5 19C18.6628 19 17.9682 18.984 17.4051 18.9614C15.5855 18.8884 14.1164 17.4952 14.0337 15.6281C14.0134 15.1716 14 14.6309 14 14C14 13.3692 14.0134 12.8284 14.0337 12.372C14.1164 10.5049 15.5855 9.1116 17.4051 9.03865C17.9682 9.01605 18.6628 9 19.5 9C20.1124 9 20.6486 9.0086 21.1129 9.02205C21.0891 8.6337 21.0638 8.2823 21.0381 7.9666C20.9035 6.31405 19.6105 5.069 17.9713 4.9556C16.4832 4.85266 14.1976 4.75 11 4.75C7.8024 4.75 5.51685 4.85266 4.02872 4.9556C2.3895 5.069 1.09647 6.31405 0.96192 7.9666C0.852915 9.30545 0.75 11.2877 0.75 14C0.75 16.7124 0.852915 18.6946 0.96192 20.0334C1.09647 21.686 2.3895 22.931 4.02872 23.0444ZM15.5322 15.5617C15.5794 16.6263 16.4004 17.4199 17.4652 17.4626C18.0074 17.4843 18.682 17.5 19.5 17.5C20.318 17.5 20.9926 17.4843 21.5348 17.4626C22.5996 17.4199 23.4206 16.6263 23.4678 15.5617C23.487 15.1282 23.5 14.6096 23.5 14C23.5 13.3905 23.487 12.8719 23.4678 12.4384C23.4206 11.3737 22.5996 10.5801 21.5348 10.5375C20.9926 10.5157 20.318 10.5 19.5 10.5C18.682 10.5 18.0074 10.5157 17.4652 10.5374C16.4004 10.5801 15.5794 11.3737 15.5322 12.4384C15.513 12.8719 15.5 13.3905 15.5 14C15.5 14.6096 15.513 15.1282 15.5322 15.5617ZM19 12.75C19.4142 12.75 19.75 13.0858 19.75 13.5V14.5C19.75 14.9142 19.4142 15.25 19 15.25C18.5858 15.25 18.25 14.9142 18.25 14.5V13.5C18.25 13.0858 18.5858 12.75 19 12.75Z" fill="#333333"/>
</svg>
